<svg id="visual" viewBox="0 0 1920 1080" width="1920" height="1080" xmlns="http://www.w3.org/2000/svg" xmlns:xlink="http://www.w3.org/1999/xlink" version="1.1"><rect x="0" y="0" width="1920" height="1080" fill="#ffffff"></rect><defs><linearGradient id="grad1_0" x1="43.8%" y1="100%" x2="100%" y2="0%"><stop offset="14.444444444444446%" stop-color="#9f9f9f" stop-opacity="1"></stop><stop offset="85.55555555555554%" stop-color="#9f9f9f" stop-opacity="1"></stop></linearGradient></defs><defs><linearGradient id="grad1_1" x1="43.8%" y1="100%" x2="100%" y2="0%"><stop offset="14.444444444444446%" stop-color="#9f9f9f" stop-opacity="1"></stop><stop offset="85.55555555555554%" stop-color="#cecece" stop-opacity="1"></stop></linearGradient></defs><defs><linearGradient id="grad1_2" x1="43.8%" y1="100%" x2="100%" y2="0%"><stop offset="14.444444444444446%" stop-color="#ffffff" stop-opacity="1"></stop><stop offset="85.55555555555554%" stop-color="#cecece" stop-opacity="1"></stop></linearGradient></defs><defs><linearGradient id="grad2_0" x1="0%" y1="100%" x2="56.3%" y2="0%"><stop offset="14.444444444444446%" stop-color="#9f9f9f" stop-opacity="1"></stop><stop offset="85.55555555555554%" stop-color="#9f9f9f" stop-opacity="1"></stop></linearGradient></defs><defs><linearGradient id="grad2_1" x1="0%" y1="100%" x2="56.3%" y2="0%"><stop offset="14.444444444444446%" stop-color="#cecece" stop-opacity="1"></stop><stop offset="85.55555555555554%" stop-color="#9f9f9f" stop-opacity="1"></stop></linearGradient></defs><defs><linearGradient id="grad2_2" x1="0%" y1="100%" x2="56.3%" y2="0%"><stop offset="14.444444444444446%" stop-color="#cecece" stop-opacity="1"></stop><stop offset="85.55555555555554%" stop-color="#ffffff" stop-opacity="1"></stop></linearGradient></defs><g transform="translate(1920, 1080)"><path d="M-486 0C-475.5 -88.8 -464.9 -177.6 -420.9 -243C-376.8 -308.4 -299.2 -350.5 -223.5 -387.1C-147.8 -423.7 -73.9 -454.9 0 -486L0 0Z" fill="#e6e6e6"></path><path d="M-324 0C-317 -59.2 -310 -118.4 -280.6 -162C-251.2 -205.6 -199.5 -233.7 -149 -258.1C-98.5 -282.5 -49.3 -303.2 0 -324L0 0Z" fill="#b6b6b6"></path><path d="M-162 0C-158.5 -29.6 -155 -59.2 -140.3 -81C-125.6 -102.8 -99.7 -116.8 -74.5 -129C-49.3 -141.2 -24.6 -151.6 0 -162L0 0Z" fill="#9f9f9f"></path></g><g transform="translate(0, 0)"><path d="M486 0C471.5 83.5 457 167 418.3 241.5C379.6 316 316.7 381.6 243 420.9C169.3 460.1 84.6 473.1 0 486L0 0Z" fill="#e6e6e6"></path><path d="M324 0C314.3 55.7 304.7 111.3 278.9 161C253.1 210.7 211.2 254.4 162 280.6C112.8 306.8 56.4 315.4 0 324L0 0Z" fill="#b6b6b6"></path><path d="M162 0C157.2 27.8 152.3 55.7 139.4 80.5C126.5 105.3 105.6 127.2 81 140.3C56.4 153.4 28.2 157.7 0 162L0 0Z" fill="#9f9f9f"></path></g></svg>