<svg id="visual" viewBox="0 0 1920 1080" width="1920" height="1080" xmlns="http://www.w3.org/2000/svg" xmlns:xlink="http://www.w3.org/1999/xlink" version="1.1"><rect x="0" y="0" width="1920" height="1080" fill="#ffffff"></rect><defs><linearGradient id="grad1_0" x1="43.8%" y1="100%" x2="100%" y2="0%"><stop offset="14.444444444444446%" stop-color="#9f9f9f" stop-opacity="1"></stop><stop offset="85.55555555555554%" stop-color="#9f9f9f" stop-opacity="1"></stop></linearGradient></defs><defs><linearGradient id="grad1_1" x1="43.8%" y1="100%" x2="100%" y2="0%"><stop offset="14.444444444444446%" stop-color="#9f9f9f" stop-opacity="1"></stop><stop offset="85.55555555555554%" stop-color="#cecece" stop-opacity="1"></stop></linearGradient></defs><defs><linearGradient id="grad1_2" x1="43.8%" y1="100%" x2="100%" y2="0%"><stop offset="14.444444444444446%" stop-color="#ffffff" stop-opacity="1"></stop><stop offset="85.55555555555554%" stop-color="#cecece" stop-opacity="1"></stop></linearGradient></defs><defs><linearGradient id="grad2_0" x1="0%" y1="100%" x2="56.3%" y2="0%"><stop offset="14.444444444444446%" stop-color="#9f9f9f" stop-opacity="1"></stop><stop offset="85.55555555555554%" stop-color="#9f9f9f" stop-opacity="1"></stop></linearGradient></defs><defs><linearGradient id="grad2_1" x1="0%" y1="100%" x2="56.3%" y2="0%"><stop offset="14.444444444444446%" stop-color="#cecece" stop-opacity="1"></stop><stop offset="85.55555555555554%" stop-color="#9f9f9f" stop-opacity="1"></stop></linearGradient></defs><defs><linearGradient id="grad2_2" x1="0%" y1="100%" x2="56.3%" y2="0%"><stop offset="14.444444444444446%" stop-color="#cecece" stop-opacity="1"></stop><stop offset="85.55555555555554%" stop-color="#ffffff" stop-opacity="1"></stop></linearGradient></defs><g transform="translate(1920, 1080)"><path d="M-1080 0C-1086.5 -159.9 -1093.1 -319.8 -997.8 -413.3C-902.5 -506.8 -705.4 -533.7 -582.7 -582.7C-459.9 -631.6 -411.5 -702.4 -326.8 -789C-242.1 -875.5 -121 -977.8 0 -1080L0 0Z" fill="#e6e6e6"></path><path d="M-720 0C-724.4 -106.6 -728.7 -213.2 -665.2 -275.5C-601.7 -337.8 -470.3 -355.8 -388.4 -388.4C-306.6 -421.1 -274.4 -468.3 -217.9 -526C-161.4 -583.7 -80.7 -651.8 0 -720L0 0Z" fill="#b6b6b6"></path><path d="M-360 0C-362.2 -53.3 -364.4 -106.6 -332.6 -137.8C-300.8 -168.9 -235.1 -177.9 -194.2 -194.2C-153.3 -210.5 -137.2 -234.1 -108.9 -263C-80.7 -291.8 -40.3 -325.9 0 -360L0 0Z" fill="#9f9f9f"></path></g><g transform="translate(0, 0)"><path d="M1080 0C1023.3 139 966.5 278 876.8 363.2C787 448.3 664.1 479.6 593.3 593.3C522.4 706.9 503.5 902.9 413.3 997.8C323.1 1092.6 161.5 1086.3 0 1080L0 0Z" fill="#e6e6e6"></path><path d="M720 0C682.2 92.7 644.4 185.3 584.5 242.1C524.7 298.9 442.8 319.7 395.5 395.5C348.3 471.3 335.7 602 275.5 665.2C215.4 728.4 107.7 724.2 0 720L0 0Z" fill="#b6b6b6"></path><path d="M360 0C341.1 46.3 322.2 92.7 292.3 121.1C262.3 149.4 221.4 159.9 197.8 197.8C174.1 235.6 167.8 301 137.8 332.6C107.7 364.2 53.8 362.1 0 360L0 0Z" fill="#9f9f9f"></path></g></svg>