<svg id="visual" viewBox="0 0 1920 1080" width="1920" height="1080" xmlns="http://www.w3.org/2000/svg" xmlns:xlink="http://www.w3.org/1999/xlink" version="1.1"><rect x="0" y="0" width="1920" height="1080" fill="#ffffff"></rect><path d="M0 852L45.7 845C91.3 838 182.7 824 274.2 826.5C365.7 829 457.3 848 548.8 856.5C640.3 865 731.7 863 823 858.8C914.3 854.7 1005.7 848.3 1097 841.2C1188.3 834 1279.7 826 1371.2 822.5C1462.7 819 1554.3 820 1645.8 818.3C1737.3 816.7 1828.7 812.3 1874.3 810.2L1920 808L1920 1081L1874.3 1081C1828.7 1081 1737.3 1081 1645.8 1081C1554.3 1081 1462.7 1081 1371.2 1081C1279.7 1081 1188.3 1081 1097 1081C1005.7 1081 914.3 1081 823 1081C731.7 1081 640.3 1081 548.8 1081C457.3 1081 365.7 1081 274.2 1081C182.7 1081 91.3 1081 45.7 1081L0 1081Z" fill="#ffffff"></path><path d="M0 893L45.7 874.3C91.3 855.7 182.7 818.3 274.2 797.2C365.7 776 457.3 771 548.8 771.5C640.3 772 731.7 778 823 788.3C914.3 798.7 1005.7 813.3 1097 822.8C1188.3 832.3 1279.7 836.7 1371.2 841.3C1462.7 846 1554.3 851 1645.8 842.3C1737.3 833.7 1828.7 811.3 1874.3 800.2L1920 789L1920 1081L1874.3 1081C1828.7 1081 1737.3 1081 1645.8 1081C1554.3 1081 1462.7 1081 1371.2 1081C1279.7 1081 1188.3 1081 1097 1081C1005.7 1081 914.3 1081 823 1081C731.7 1081 640.3 1081 548.8 1081C457.3 1081 365.7 1081 274.2 1081C182.7 1081 91.3 1081 45.7 1081L0 1081Z" fill="#d6d6d6"></path><path d="M0 838L45.7 835.5C91.3 833 182.7 828 274.2 831.2C365.7 834.3 457.3 845.7 548.8 848.3C640.3 851 731.7 845 823 839.7C914.3 834.3 1005.7 829.7 1097 841C1188.3 852.3 1279.7 879.7 1371.2 894.2C1462.7 908.7 1554.3 910.3 1645.8 899.8C1737.3 889.3 1828.7 866.7 1874.3 855.3L1920 844L1920 1081L1874.3 1081C1828.7 1081 1737.3 1081 1645.8 1081C1554.3 1081 1462.7 1081 1371.2 1081C1279.7 1081 1188.3 1081 1097 1081C1005.7 1081 914.3 1081 823 1081C731.7 1081 640.3 1081 548.8 1081C457.3 1081 365.7 1081 274.2 1081C182.7 1081 91.3 1081 45.7 1081L0 1081Z" fill="#afafaf"></path><path d="M0 864L45.7 867C91.3 870 182.7 876 274.2 889.5C365.7 903 457.3 924 548.8 918.8C640.3 913.7 731.7 882.3 823 881.2C914.3 880 1005.7 909 1097 915.7C1188.3 922.3 1279.7 906.7 1371.2 898.7C1462.7 890.7 1554.3 890.3 1645.8 887C1737.3 883.7 1828.7 877.3 1874.3 874.2L1920 871L1920 1081L1874.3 1081C1828.7 1081 1737.3 1081 1645.8 1081C1554.3 1081 1462.7 1081 1371.2 1081C1279.7 1081 1188.3 1081 1097 1081C1005.7 1081 914.3 1081 823 1081C731.7 1081 640.3 1081 548.8 1081C457.3 1081 365.7 1081 274.2 1081C182.7 1081 91.3 1081 45.7 1081L0 1081Z" fill="#898989"></path><path d="M0 961L45.7 953.2C91.3 945.3 182.7 929.7 274.2 929.3C365.7 929 457.3 944 548.8 944.8C640.3 945.7 731.7 932.3 823 920.7C914.3 909 1005.7 899 1097 902.2C1188.3 905.3 1279.7 921.7 1371.2 935.5C1462.7 949.3 1554.3 960.7 1645.8 965.3C1737.3 970 1828.7 968 1874.3 967L1920 966L1920 1081L1874.3 1081C1828.7 1081 1737.3 1081 1645.8 1081C1554.3 1081 1462.7 1081 1371.2 1081C1279.7 1081 1188.3 1081 1097 1081C1005.7 1081 914.3 1081 823 1081C731.7 1081 640.3 1081 548.8 1081C457.3 1081 365.7 1081 274.2 1081C182.7 1081 91.3 1081 45.7 1081L0 1081Z" fill="#656565"></path><path d="M0 979L45.7 978C91.3 977 182.7 975 274.2 978.7C365.7 982.3 457.3 991.7 548.8 995.7C640.3 999.7 731.7 998.3 823 996.2C914.3 994 1005.7 991 1097 981.5C1188.3 972 1279.7 956 1371.2 955.3C1462.7 954.7 1554.3 969.3 1645.8 974.7C1737.3 980 1828.7 976 1874.3 974L1920 972L1920 1081L1874.3 1081C1828.7 1081 1737.3 1081 1645.8 1081C1554.3 1081 1462.7 1081 1371.2 1081C1279.7 1081 1188.3 1081 1097 1081C1005.7 1081 914.3 1081 823 1081C731.7 1081 640.3 1081 548.8 1081C457.3 1081 365.7 1081 274.2 1081C182.7 1081 91.3 1081 45.7 1081L0 1081Z" fill="#434343"></path><path d="M0 985L45.7 992.2C91.3 999.3 182.7 1013.7 274.2 1010.8C365.7 1008 457.3 988 548.8 981C640.3 974 731.7 980 823 980.7C914.3 981.3 1005.7 976.7 1097 974C1188.3 971.3 1279.7 970.7 1371.2 973C1462.7 975.3 1554.3 980.7 1645.8 984.7C1737.3 988.7 1828.7 991.3 1874.3 992.7L1920 994L1920 1081L1874.3 1081C1828.7 1081 1737.3 1081 1645.8 1081C1554.3 1081 1462.7 1081 1371.2 1081C1279.7 1081 1188.3 1081 1097 1081C1005.7 1081 914.3 1081 823 1081C731.7 1081 640.3 1081 548.8 1081C457.3 1081 365.7 1081 274.2 1081C182.7 1081 91.3 1081 45.7 1081L0 1081Z" fill="#242424"></path><path d="M0 1044L45.7 1042.7C91.3 1041.3 182.7 1038.7 274.2 1036.8C365.7 1035 457.3 1034 548.8 1033.8C640.3 1033.7 731.7 1034.3 823 1031C914.3 1027.7 1005.7 1020.3 1097 1019.7C1188.3 1019 1279.7 1025 1371.2 1027C1462.7 1029 1554.3 1027 1645.8 1025.3C1737.3 1023.7 1828.7 1022.3 1874.3 1021.7L1920 1021L1920 1081L1874.3 1081C1828.7 1081 1737.3 1081 1645.8 1081C1554.3 1081 1462.7 1081 1371.2 1081C1279.7 1081 1188.3 1081 1097 1081C1005.7 1081 914.3 1081 823 1081C731.7 1081 640.3 1081 548.8 1081C457.3 1081 365.7 1081 274.2 1081C182.7 1081 91.3 1081 45.7 1081L0 1081Z" fill="#000000"></path></svg>